# Blender 5.1.1
# www.blender.org
mtllib object.mtl
o House
v -1.500000 -0.300000 1.500000
v -1.500000 1.500000 1.500000
v -1.500000 -0.300000 -1.500000
v -1.500000 1.500000 -1.500000
v 1.500000 -0.300000 1.500000
v 1.500000 1.500000 1.500000
v 1.500000 -0.300000 -1.500000
v 1.500000 1.500000 -1.500000
v -1.700000 -0.382839 1.700000
v -1.700000 -0.282839 1.700000
v -1.700000 -0.382839 -1.700000
v -1.700000 -0.282839 -1.700000
v 1.700000 -0.382839 1.700000
v 1.700000 -0.282839 1.700000
v 1.700000 -0.382839 -1.700000
v 1.700000 -0.282839 -1.700000
v -1.520280 1.496180 -1.520280
v 1.520280 1.496180 -1.520280
v 1.520280 1.496180 1.520280
v -1.520280 1.496180 1.520280
v 0.000000 2.896180 0.000000
v 0.696915 1.698890 -0.352718
v 0.696915 2.448890 -0.352718
v 0.696915 1.698890 -0.852718
v 0.696915 2.448890 -0.852718
v 1.196915 1.698890 -0.352718
v 1.196915 2.448890 -0.352718
v 1.196915 1.698890 -0.852718
v 1.196915 2.448890 -0.852718
v -0.200000 0.175000 1.535000
v -0.200000 0.825000 1.535000
v -0.200000 0.175000 1.485000
v -0.200000 0.825000 1.485000
v 0.200000 0.175000 1.535000
v 0.200000 0.825000 1.535000
v 0.200000 0.175000 1.485000
v 0.200000 0.825000 1.485000
v -1.425000 0.775000 1.535000
v -1.425000 1.225000 1.535000
v -1.425000 0.775000 1.485000
v -1.425000 1.225000 1.485000
v -0.975000 0.775000 1.535000
v -0.975000 1.225000 1.535000
v -0.975000 0.775000 1.485000
v -0.975000 1.225000 1.485000
v 0.975000 0.775000 1.535000
v 0.975000 1.225000 1.535000
v 0.975000 0.775000 1.485000
v 0.975000 1.225000 1.485000
v 1.425000 0.775000 1.535000
v 1.425000 1.225000 1.535000
v 1.425000 0.775000 1.485000
v 1.425000 1.225000 1.485000
v -0.225000 0.775000 -1.485000
v -0.225000 1.225000 -1.485000
v -0.225000 0.775000 -1.535000
v -0.225000 1.225000 -1.535000
v 0.225000 0.775000 -1.485000
v 0.225000 1.225000 -1.485000
v 0.225000 0.775000 -1.535000
v 0.225000 1.225000 -1.535000
v -1.535000 0.775000 1.025000
v -1.535000 1.225000 1.025000
v -1.535000 0.775000 0.575000
v -1.535000 1.225000 0.575000
v -1.485000 0.775000 1.025000
v -1.485000 1.225000 1.025000
v -1.485000 0.775000 0.575000
v -1.485000 1.225000 0.575000
v -1.245000 0.998750 1.511250
v -1.245000 1.001250 1.511250
v -1.245000 0.998750 1.508750
v -1.245000 1.001250 1.508750
v -1.155000 0.998750 1.511250
v -1.155000 1.001250 1.511250
v -1.155000 0.998750 1.508750
v -1.155000 1.001250 1.508750
v -1.201250 0.955000 1.511250
v -1.201250 1.045000 1.511250
v -1.201250 0.955000 1.508750
v -1.201250 1.045000 1.508750
v -1.198750 0.955000 1.511250
v -1.198750 1.045000 1.511250
v -1.198750 0.955000 1.508750
v -1.198750 1.045000 1.508750
v 1.155000 0.998750 1.511250
v 1.155000 1.001250 1.511250
v 1.155000 0.998750 1.508750
v 1.155000 1.001250 1.508750
v 1.245000 0.998750 1.511250
v 1.245000 1.001250 1.511250
v 1.245000 0.998750 1.508750
v 1.245000 1.001250 1.508750
v 1.198750 0.955000 1.511250
v 1.198750 1.045000 1.511250
v 1.198750 0.955000 1.508750
v 1.198750 1.045000 1.508750
v 1.201250 0.955000 1.511250
v 1.201250 1.045000 1.511250
v 1.201250 0.955000 1.508750
v 1.201250 1.045000 1.508750
v -0.045000 0.998750 -1.508750
v -0.045000 1.001250 -1.508750
v -0.045000 0.998750 -1.511250
v -0.045000 1.001250 -1.511250
v 0.045000 0.998750 -1.508750
v 0.045000 1.001250 -1.508750
v 0.045000 0.998750 -1.511250
v 0.045000 1.001250 -1.511250
v -0.001250 0.955000 -1.508750
v -0.001250 1.045000 -1.508750
v -0.001250 0.955000 -1.511250
v -0.001250 1.045000 -1.511250
v 0.001250 0.955000 -1.508750
v 0.001250 1.045000 -1.508750
v 0.001250 0.955000 -1.511250
v 0.001250 1.045000 -1.511250
v -1.511250 0.998750 0.837500
v -1.511250 1.001250 0.837500
v -1.511250 0.998750 0.762500
v -1.511250 1.001250 0.762500
v -1.508750 0.998750 0.837500
v -1.508750 1.001250 0.837500
v -1.508750 0.998750 0.762500
v -1.508750 1.001250 0.762500
v -1.511250 0.962500 0.801250
v -1.511250 1.037500 0.801250
v -1.511250 0.962500 0.798750
v -1.511250 1.037500 0.798750
v -1.508750 0.962500 0.801250
v -1.508750 1.037500 0.801250
v -1.508750 0.962500 0.798750
v -1.508750 1.037500 0.798750
v -0.451250 0.615000 1.501250
v -0.451250 0.685000 1.501250
v -0.451250 0.615000 1.498750
v -0.451250 0.685000 1.498750
v -0.448750 0.615000 1.501250
v -0.448750 0.685000 1.501250
v -0.448750 0.615000 1.498750
v -0.448750 0.685000 1.498750
v 0.448750 0.615000 1.501250
v 0.448750 0.685000 1.501250
v 0.448750 0.615000 1.498750
v 0.448750 0.685000 1.498750
v 0.451250 0.615000 1.501250
v 0.451250 0.685000 1.501250
v 0.451250 0.615000 1.498750
v 0.451250 0.685000 1.498750
v -0.025000 1.348750 1.501250
v -0.025000 1.351250 1.501250
v -0.025000 1.348750 1.498750
v -0.025000 1.351250 1.498750
v 0.025000 1.348750 1.501250
v 0.025000 1.351250 1.501250
v 0.025000 1.348750 1.498750
v 0.025000 1.351250 1.498750
vn -1.0000 -0.0000 -0.0000
vn -0.0000 -0.0000 -1.0000
vn 1.0000 -0.0000 -0.0000
vn -0.0000 -0.0000 1.0000
vn -0.0000 -1.0000 -0.0000
vn -0.0000 1.0000 -0.0000
vn -0.0000 0.7356 -0.6774
vn 0.6774 0.7356 -0.0000
vn -0.0000 0.7356 0.6774
vn -0.6774 0.7356 -0.0000
vt 0.375000 0.000000
vt 0.625000 0.000000
vt 0.625000 0.250000
vt 0.375000 0.250000
vt 0.625000 0.500000
vt 0.375000 0.500000
vt 0.625000 0.750000
vt 0.375000 0.750000
vt 0.625000 1.000000
vt 0.375000 1.000000
vt 0.125000 0.500000
vt 0.125000 0.750000
vt 0.875000 0.500000
vt 0.875000 0.750000
vt 0.250000 0.490000
vt 0.250000 0.250000
vt 0.490000 0.250000
vt 0.250000 0.010000
vt 0.750000 0.490000
vt 0.990000 0.250000
vt 0.750000 0.010000
vt 0.510000 0.250000
vt 0.010000 0.250000
s 0
usemtl Wall_Material
f 1/1/1 2/2/1 4/3/1 3/4/1
f 3/4/2 4/3/2 8/5/2 7/6/2
f 7/6/3 8/5/3 6/7/3 5/8/3
f 5/8/4 6/7/4 2/9/4 1/10/4
f 3/11/5 7/6/5 5/8/5 1/12/5
f 8/5/6 4/13/6 2/14/6 6/7/6
usemtl Foundation_Material
f 9/1/1 10/2/1 12/3/1 11/4/1
f 11/4/2 12/3/2 16/5/2 15/6/2
f 15/6/3 16/5/3 14/7/3 13/8/3
f 13/8/4 14/7/4 10/9/4 9/10/4
f 11/11/5 15/6/5 13/8/5 9/12/5
f 16/5/6 12/13/6 10/14/6 14/7/6
usemtl Roof_Material
f 17/15/7 21/16/7 18/17/7
f 18/17/8 21/16/8 19/18/8
f 17/19/5 18/20/5 19/21/5 20/22/5
f 19/18/9 21/16/9 20/23/9
f 20/23/10 21/16/10 17/15/10
usemtl Chimney_Material
f 22/1/1 23/2/1 25/3/1 24/4/1
f 24/4/2 25/3/2 29/5/2 28/6/2
f 28/6/3 29/5/3 27/7/3 26/8/3
f 26/8/4 27/7/4 23/9/4 22/10/4
f 24/11/5 28/6/5 26/8/5 22/12/5
f 29/5/6 25/13/6 23/14/6 27/7/6
usemtl Door_Material
f 30/1/1 31/2/1 33/3/1 32/4/1
f 32/4/2 33/3/2 37/5/2 36/6/2
f 36/6/3 37/5/3 35/7/3 34/8/3
f 34/8/4 35/7/4 31/9/4 30/10/4
f 32/11/5 36/6/5 34/8/5 30/12/5
f 37/5/6 33/13/6 31/14/6 35/7/6
usemtl Window_Material
f 38/1/1 39/2/1 41/3/1 40/4/1
f 40/4/2 41/3/2 45/5/2 44/6/2
f 44/6/3 45/5/3 43/7/3 42/8/3
f 42/8/4 43/7/4 39/9/4 38/10/4
f 40/11/5 44/6/5 42/8/5 38/12/5
f 45/5/6 41/13/6 39/14/6 43/7/6
f 46/1/1 47/2/1 49/3/1 48/4/1
f 48/4/2 49/3/2 53/5/2 52/6/2
f 52/6/3 53/5/3 51/7/3 50/8/3
f 50/8/4 51/7/4 47/9/4 46/10/4
f 48/11/5 52/6/5 50/8/5 46/12/5
f 53/5/6 49/13/6 47/14/6 51/7/6
f 54/1/1 55/2/1 57/3/1 56/4/1
f 56/4/2 57/3/2 61/5/2 60/6/2
f 60/6/3 61/5/3 59/7/3 58/8/3
f 58/8/4 59/7/4 55/9/4 54/10/4
f 56/11/5 60/6/5 58/8/5 54/12/5
f 61/5/6 57/13/6 55/14/6 59/7/6
f 62/1/1 63/2/1 65/3/1 64/4/1
f 64/4/2 65/3/2 69/5/2 68/6/2
f 68/6/3 69/5/3 67/7/3 66/8/3
f 66/8/4 67/7/4 63/9/4 62/10/4
f 64/11/5 68/6/5 66/8/5 62/12/5
f 69/5/6 65/13/6 63/14/6 67/7/6
usemtl Wood_Material
f 70/1/1 71/2/1 73/3/1 72/4/1
f 72/4/2 73/3/2 77/5/2 76/6/2
f 76/6/3 77/5/3 75/7/3 74/8/3
f 74/8/4 75/7/4 71/9/4 70/10/4
f 72/11/5 76/6/5 74/8/5 70/12/5
f 77/5/6 73/13/6 71/14/6 75/7/6
f 78/1/1 79/2/1 81/3/1 80/4/1
f 80/4/2 81/3/2 85/5/2 84/6/2
f 84/6/3 85/5/3 83/7/3 82/8/3
f 82/8/4 83/7/4 79/9/4 78/10/4
f 80/11/5 84/6/5 82/8/5 78/12/5
f 85/5/6 81/13/6 79/14/6 83/7/6
f 86/1/1 87/2/1 89/3/1 88/4/1
f 88/4/2 89/3/2 93/5/2 92/6/2
f 92/6/3 93/5/3 91/7/3 90/8/3
f 90/8/4 91/7/4 87/9/4 86/10/4
f 88/11/5 92/6/5 90/8/5 86/12/5
f 93/5/6 89/13/6 87/14/6 91/7/6
f 94/1/1 95/2/1 97/3/1 96/4/1
f 96/4/2 97/3/2 101/5/2 100/6/2
f 100/6/3 101/5/3 99/7/3 98/8/3
f 98/8/4 99/7/4 95/9/4 94/10/4
f 96/11/5 100/6/5 98/8/5 94/12/5
f 101/5/6 97/13/6 95/14/6 99/7/6
f 102/1/1 103/2/1 105/3/1 104/4/1
f 104/4/2 105/3/2 109/5/2 108/6/2
f 108/6/3 109/5/3 107/7/3 106/8/3
f 106/8/4 107/7/4 103/9/4 102/10/4
f 104/11/5 108/6/5 106/8/5 102/12/5
f 109/5/6 105/13/6 103/14/6 107/7/6
f 110/1/1 111/2/1 113/3/1 112/4/1
f 112/4/2 113/3/2 117/5/2 116/6/2
f 116/6/3 117/5/3 115/7/3 114/8/3
f 114/8/4 115/7/4 111/9/4 110/10/4
f 112/11/5 116/6/5 114/8/5 110/12/5
f 117/5/6 113/13/6 111/14/6 115/7/6
f 118/1/1 119/2/1 121/3/1 120/4/1
f 120/4/2 121/3/2 125/5/2 124/6/2
f 124/6/3 125/5/3 123/7/3 122/8/3
f 122/8/4 123/7/4 119/9/4 118/10/4
f 120/11/5 124/6/5 122/8/5 118/12/5
f 125/5/6 121/13/6 119/14/6 123/7/6
f 126/1/1 127/2/1 129/3/1 128/4/1
f 128/4/2 129/3/2 133/5/2 132/6/2
f 132/6/3 133/5/3 131/7/3 130/8/3
f 130/8/4 131/7/4 127/9/4 126/10/4
f 128/11/5 132/6/5 130/8/5 126/12/5
f 133/5/6 129/13/6 127/14/6 131/7/6
usemtl Door_Trim_Material
f 134/1/1 135/2/1 137/3/1 136/4/1
f 136/4/2 137/3/2 141/5/2 140/6/2
f 140/6/3 141/5/3 139/7/3 138/8/3
f 138/8/4 139/7/4 135/9/4 134/10/4
f 136/11/5 140/6/5 138/8/5 134/12/5
f 141/5/6 137/13/6 135/14/6 139/7/6
f 142/1/1 143/2/1 145/3/1 144/4/1
f 144/4/2 145/3/2 149/5/2 148/6/2
f 148/6/3 149/5/3 147/7/3 146/8/3
f 146/8/4 147/7/4 143/9/4 142/10/4
f 144/11/5 148/6/5 146/8/5 142/12/5
f 149/5/6 145/13/6 143/14/6 147/7/6
f 150/1/1 151/2/1 153/3/1 152/4/1
f 152/4/2 153/3/2 157/5/2 156/6/2
f 156/6/3 157/5/3 155/7/3 154/8/3
f 154/8/4 155/7/4 151/9/4 150/10/4
f 152/11/5 156/6/5 154/8/5 150/12/5
f 157/5/6 153/13/6 151/14/6 155/7/6
